<?xml version="1.0" standalone="no"?>
<!DOCTYPE svg PUBLIC "-//W3C//DTD SVG 1.1//EN" "http://www.w3.org/Graphics/SVG/1.1/DTD/svg11.dtd" >
<!--
2013-9-30: Created.
-->
<svg>
<metadata>
Created by iconfont
</metadata>
<defs>

<font id="iconfont" horiz-adv-x="1024" >
  <font-face
    font-family="iconfont"
    font-weight="500"
    font-stretch="normal"
    units-per-em="1024"
    ascent="896"
    descent="-128"
  />
    <missing-glyph />
    
    <glyph glyph-name="mygift" unicode="&#58888;" d="M898.897236 633.489214L718.143499 633.489214c11.120268 18.983353 16.859993 40.910759 16.859993 62.33265 0 56.446593-38.850843 113.585965-113.166409 113.585965-34.351366 0-63.551408-11.961426-86.803995-35.59059-12.486382-12.656251-21.98778-27.813462-29.43131-43.706431-7.272637 15.872502-16.60826 30.987758-28.884864 43.642986-23.041786 23.673166-52.095495 35.655058-86.426395 35.655058-44.021609 0-70.573335-19.635199-85.101213-36.117592-18.10024-20.518313-28.065196-48.015573-28.065196-77.468372 0-21.422915 5.760191-43.349297 16.881482-62.33265L125.360637 633.490238c-14.925944 0-27.01426-12.109806-27.01426-27.03575l0-245.693772c0-14.926968 12.087293-27.03575 27.01426-27.03575l36.685527 0 0-346.07704c0-14.927991 12.088316-27.036773 27.01426-27.036773l248.76369 0 148.632155 0 248.741177 0c14.927991 0 27.015284 12.108782 27.015284 27.036773L862.212732 333.72292000000004l36.684504 0c14.926968 0 27.01426 12.108782 27.01426 27.03575L925.911496 606.452441C925.911496 621.379409 913.824203 633.489214 898.897236 633.489214zM573.547263 735.891466c12.887518 13.096273 28.675086 19.487843 48.288796 19.487843 43.641963 0 59.137889-32.080649 59.137889-59.557444 0-16.524348-5.550413-32.460296-15.243169-43.706431-10.614755-12.341073-25.331945-18.605753-43.789319-18.626219l-86.23606 0.692778C538.986119 665.652751 548.803719 710.789765 573.547263 735.891466zM331.17412 695.821865c0 16.270569 5.151323 31.071669 14.56881 41.729403 10.407024 11.815093 25.39539 17.828041 44.547589 17.828041 19.404955 0 34.961256-6.28617 47.575552-19.21462 24.470321-25.080212 33.80492-70.869071 36.727483-102.675474l-36.769438 0-47.532573 0C343.620593 633.489214 331.17412 672.674679 331.17412 695.821865zM152.374898 579.438181l237.916645 0 20.497846 0 0-191.665251L152.374898 387.77293 152.374898 579.438181zM216.074685 333.72292000000004l194.71368 0 0-319.064826L216.074685 14.658094000000006 216.074685 333.72292000000004zM464.838376 14.658094000000006L464.838376 579.438181l37.862329 0 56.720839 0 0-564.780087L464.838376 14.658094000000006zM808.163745 14.658094000000006l-194.694237 0L613.469508 333.72292000000004l194.694237 0L808.163745 14.658094000000006zM871.862509 387.77293L613.469508 387.77293l0 191.665251 8.135284 0 0.232291 0 250.025427 0L871.862509 387.77293z"  horiz-adv-x="1024" />

    
    <glyph glyph-name="discuss" unicode="&#58892;" d="M146.242053 895.714365v-146.242053H0v-658.10352h146.242053v-219.37022l292.491247 219.37022h511.861467V164.489819H1096.83682V895.714365H146.242053z m731.224547-731.224546H416.797992l-21.936737-14.621635-175.491035-131.620418V164.489819H73.121026V676.344145h804.345574V164.489819z m146.249194 73.121026h-73.121027V749.472312h-731.224547V822.593339h804.345574v-584.982494zM146.242053 530.1020920000001v73.121027H731.224547V530.1020920000001H146.242053z m14.628775-146.242053v73.121027h424.111666v-73.121027H160.870828z m-14.628775-146.249194v73.121027H292.489819v-73.121027H146.242053z"  horiz-adv-x="1096" />

    
    <glyph glyph-name="delete" unicode="&#59079;" d="M799.2 21.600000000000023c0-34.4-28-62.4-62.4-62.4H287.2c-34.4 0-62.4 28-62.4 62.4V684h574.4v-662.4zM349.6 796c0 7.2 5.6 12.8 12.8 12.8h300c7.2 0 12.8-5.6 12.8-12.8v-37.6H349.6V796z m636.8-37.6H749.6V796c0 48-39.2 87.2-87.2 87.2h-300c-48 0-87.2-39.2-87.2-87.2v-37.6H37.6C16.8 758.4 0 741.6 0 720.8s16.8-37.6 37.6-37.6h112v-661.6c0-76 61.6-137.6 137.6-137.6h449.6c76 0 137.6 61.6 137.6 137.6V684h112c20.8 0 37.6 16.8 37.6 37.6s-16.8 36.8-37.6 36.8zM512 72c20.8 0 37.6 16.8 37.6 37.6v400c0 20.8-16.8 37.6-37.6 37.6s-37.6-16.8-37.6-37.6v-400c0-20.8 16.8-37.6 37.6-37.6m-175.2 0c20.8 0 37.6 16.8 37.6 37.6v400c0 20.8-16.8 37.6-37.6 37.6s-37.6-16.8-37.6-37.6v-400c0.8-20.8 17.6-37.6 37.6-37.6m350.4 0c20.8 0 37.6 16.8 37.6 37.6v400c0 20.8-16.8 37.6-37.6 37.6s-37.6-16.8-37.6-37.6v-400c0-20.8 16.8-37.6 37.6-37.6"  horiz-adv-x="1024" />

    
    <glyph glyph-name="comic" unicode="&#58889;" d="M408.9 531.6m-7.8 0a7.8 7.8 0 1 1 15.6 0 7.8 7.8 0 1 1-15.6 0ZM638.5 531.6m-7.8 0a7.8 7.8 0 1 1 15.6 0 7.8 7.8 0 1 1-15.6 0ZM804.7 507c-12.2 0.4-24.5 0.1-36.8-1-6.1-0.6-12.3-1.3-18.5-2.3-2.6-0.5-5.1-1.1-7.6-1.7-1.8 7.4-4 14.6-6.6 21.6 5.2 2.2 10.5 4.4 16.1 6 8.8 2.7 17.8 4.8 26.9 6.3 9.1 1.7 18.4 2.9 27.7 3.8v0.9c-9.4 0.6-18.8 0.3-28.2-0.3-9.4-0.7-18.8-1.9-28.1-3.8-5.8-1.2-11.8-2.5-17.6-4.5-14.3 35.1-37 65.8-65.8 89.6 6.4 76.5-8 145.4-8 145.4-34.8-20.9-58.4-69.5-71.2-103.1-20.6 6.1-42.3 9.6-64.9 9.6-28.1 0-54.9-5.4-79.7-14.7-13.5 32.7-41.1 87.4-80.4 108.3 0 0-12-77.6 1.6-158.5-25.8-25.4-45.6-56.9-57-92.2-1.4 1-2.9 1.9-4.3 2.8-8.5 5-18.2 6.9-27.4 8.8-9.3 1.9-18.7 3.1-28.1 3.8-9.4 0.5-18.8 0.8-28.2 0.3v-0.9c9.3-0.8 18.5-2.1 27.7-3.8 9.1-1.6 18.2-3.6 26.9-6.3 8.8-2.6 17.1-6.5 25.2-9.9 2.1-0.9 4-1.9 6-2.9-2-6.9-3.6-14-4.9-21.2-2.1 1-4.2 2.1-6.4 3-5.9 2.3-11.9 4-18.1 5-6.2 1-12.3 1.7-18.5 2.3-12.3 1.1-24.6 1.4-36.8 1-12.2-0.5-24.4-1.4-36.5-3.3l0.1-0.9c12.1 0.5 24.3 0.4 36.4-0.2 12.1-0.5 24.1-1.7 36-3.6 11.9-1.9 23.3-5.4 34.5-8.7 2.7-0.8 5.4-1.7 8.1-2.7-1-7-1.7-14.2-2-21.4-8.9 2.3-18.1 1.8-27.1 1.4-9.2-0.6-18.2-2-27.1-4-8.8-2.1-17.6-4.6-25.9-8l0.3-0.8c8.7 2 17.5 3.5 26.4 4.5 8.8 1 17.7 1.5 26.5 1.2 8.8-0.3 17.3-2.1 25.8-3.1 0.2 0 0.5-0.1 0.7-0.1 0-0.7-0.1-1.4-0.1-2.1 0-19.6 2.5-38.7 7.2-56.9-31.5-40.2-50.1-89.3-50.1-142.4 0-135.5 120.7-245.3 269.5-245.3s269.5 109.8 269.5 245.3c0 53.1-18.6 102.3-50.1 142.4 4.7 18.2 7.2 37.2 7.2 56.9 0 4.5-0.1 8.9-0.4 13.3 2.3 0.2 4.6 0.6 6.9 0.7 8.8 0.3 17.6-0.2 26.5-1.2 8.8-0.9 17.7-2.4 26.4-4.5l0.3 0.8c-8.4 3.4-17.1 5.9-25.9 8-8.9 1.9-17.9 3.4-27.1 4-2.5 0.1-5.1 0.2-7.7 0.3-0.8 8.5-2.1 16.9-3.8 25.1 8.2 2.3 16.4 4.6 25 5.9 11.8 1.9 23.9 3.1 36 3.6 12.1 0.7 24.2 0.7 36.4 0.2l0.1 0.9c-12.6 1.8-24.8 2.7-37 3.3z m-164 52.7c16.3 0 29.4-12.6 29.4-28.1s-13.2-28.1-29.4-28.1c-16.3 0-29.4 12.6-29.4 28.1s13.1 28.1 29.4 28.1z m-116.9-18.9c15.3 0 27.7-4.1 27.7-9.2s-12.4-9.2-27.7-9.2c-15.3 0-27.7 4.1-27.7 9.2s12.4 9.2 27.7 9.2zM407 559.7c16.3 0 29.4-12.6 29.4-28.1s-13.2-28.1-29.4-28.1-29.4 12.6-29.4 28.1 13.1 28.1 29.4 28.1z m115.1-527.8c-118.9 0-215.2 92-215.2 205.6 0 113.5 96.3 205.6 215.2 205.6s215.2-92 215.2-205.6S641 31.899999999999977 522.1 31.899999999999977zM436.7 338.1c-3.6 1.6-7.3 3.1-11.3 4-8 1.6-16.8 1.3-25.1-2-8.2-3.4-15.2-9.8-19.1-17.3-3.9-7.5-5.3-16-3.2-23.9 5 6.3 9.5 11.5 14.3 15.6 4.7 4.1 9.5 7 14.7 9.2 5.3 2 11.1 3.4 17.7 4.4 3.3 0.5 6.7 0.7 10.3 1.4 3.6 0.3 7.3 0.7 11.4 1.6-2.9 2.8-6.2 4.9-9.7 7zM666.2 296.79999999999995c2.1 7.9 0.8 16.4-3.2 23.9-3.9 7.5-10.9 13.9-19.1 17.3-8.3 3.2-17.1 3.6-25.1 2-4-0.9-7.7-2.4-11.3-4-3.5-2-6.8-4.2-9.7-6.9 4.1-1 7.8-1.3 11.4-1.6 3.6-0.7 7-0.9 10.3-1.4 6.6-1.1 12.4-2.5 17.7-4.4 5.2-2.2 10-5.1 14.7-9.2 4.8-4.2 9.3-9.4 14.3-15.7zM548.9 343.79999999999995c3.4-1 6.8-2.3 10.9-3.1-1.5 3.7-3.6 7.2-6 10.3-1.3 1.5-2.8 2.9-4.2 4.3-0.7 0.7-1.5 1.4-2.3 2.1-0.9 0.6-1.7 1.1-2.6 1.7-6.8 4.8-15.9 6.8-24.6 6.1-8.8-0.7-16.9-4.5-23.1-9.8-6.1-5.4-10.9-12.1-12.6-20.1 7.4 3.2 13.7 6 19.8 8.2 6.1 2.2 11.8 3.5 17.4 4 5.6 0.3 11.3 0.3 17.5-1.3 0.8-0.2 1.6-0.3 2.4-0.4l2.4-0.7c1.6-0.5 3.3-0.9 5-1.3zM396 254.70000000000005c-8 1.6-16.8 1.3-25.1-2-8.2-3.4-15.2-9.8-19.1-17.3-3.9-7.5-5.3-16-3.2-23.9 5 6.3 9.5 11.5 14.3 15.6 4.7 4.1 9.5 7 14.7 9.2 5.3 2 11.1 3.4 17.7 4.4 3.3 0.5 6.7 0.7 10.3 1.4 3.6 0.3 7.3 0.7 11.4 1.6-3 2.7-6.3 4.9-9.7 6.9-3.6 1.7-7.4 3.2-11.3 4.1zM660.8 260.9c-4-0.3-8-1.3-11.8-2.4-3.7-1.5-7.3-3.2-10.6-5.5 3.9-1.5 7.5-2.4 11.1-3.2 3.5-1.2 6.8-1.9 10-2.8 6.3-2 11.9-4.2 16.9-6.9 4.8-2.9 9.2-6.5 13.3-11.2 4.2-4.7 7.9-10.5 12-17.5 3.2 7.5 3.1 16.1 0.2 24.1-2.8 8-8.9 15.3-16.5 19.9-7.7 4.5-16.4 6-24.6 5.5zM586.4 291.5c-8.8 1.6-17.5 0.2-25-2.9-3.7-1.6-7.1-3.8-10.3-6.1-3-2.7-5.8-5.4-8.2-8.7 4.2-0.2 7.9 0.2 11.5 0.6 3.7 0 7.1 0.5 10.4 0.6 6.6 0.2 12.6 0 18.2-1 5.5-1.2 10.8-3.1 16.2-6.2 5.5-3.1 10.9-7.3 17-12.6 0.6 8.2-2.4 16.3-7.7 22.9-5.3 6.7-13.4 11.6-22.1 13.4zM504.3 285.29999999999995c-1.6 1.1-3.4 2.2-5.1 3.2l-2.7 1.5c-1 0.3-1.9 0.7-2.9 1-7.7 3.1-17.1 2.9-25.4 0.2-8.4-2.7-15.4-8.3-20.2-14.9-4.7-6.7-7.8-14.3-7.6-22.5 6.4 4.8 11.9 9 17.4 12.6 5.4 3.6 10.7 6.2 16 7.9 5.4 1.6 10.9 3 17.3 2.8 0.8 0 1.6 0.1 2.4 0.2l2.5-0.2c1.7-0.1 3.4-0.1 5.2-0.1 3.5-0.2 7.2-0.7 11.4-0.5-2.4 3.4-5.1 6.3-8.3 8.8z"  horiz-adv-x="1024" />

    
    <glyph glyph-name="music" unicode="&#59008;" d="M179.2-128C81.454545-128 0-48.872727000000054 0 51.200000000000045s79.127273 179.2 179.2 179.2c39.563636 0 76.8-13.963636 109.381818-37.236364l9.309091-6.981818V761.018182c0 34.909091 27.927273 62.836364 60.509091 62.836363l598.109091 69.818182h4.654545C993.745455 896 1024 868.072727 1024 833.163636v-672.581818c0-48.872727-18.618182-93.090909-53.527273-125.672727-32.581818-32.581818-79.127273-51.2-125.672727-51.2-97.745455 0-179.2 79.127273-179.2 179.2 0 97.745455 79.127273 179.2 179.2 179.2 39.563636 0 79.127273-13.963636 109.381818-37.236364l9.309091-6.981818V609.745455l-605.090909-65.163637v-493.381818c-2.327273-100.072727-81.454545-179.2-179.2-179.2z m0 295.563636c-65.163636 0-118.690909-53.527273-118.690909-118.690909s53.527273-118.690909 118.690909-118.690909 118.690909 53.527273 118.690909 118.690909c-2.327273 67.490909-53.527273 118.690909-118.690909 118.690909z m665.6 111.709091c-65.163636 0-118.690909-53.527273-118.690909-118.690909s53.527273-118.690909 118.690909-118.690909 118.690909 53.527273 118.690909 118.690909-53.527273 118.690909-118.690909 118.690909z m-488.727273 325.818182l605.090909 65.163636V835.490909l-598.109091-69.818182h-6.981818v-160.581818z"  horiz-adv-x="1024" />

    
    <glyph glyph-name="acient" unicode="&#58885;" d="M93.74354465-42.12132297000005q-24.04277568 27.88962032-24.04277676 64.43463997 0 28.85133147 15.38737743 52.41325102T127.40343083 109.82902146000004Q203.37860252-14.23170263999998 333.2095925-82.51318615000002q-35.58330849-18.27250982-71.16661697-18.27250982-39.43015204 0-67.31977236 15.38737634-35.58330849-15.38737636-67.31977234-15.38737634-32.69817501 0-61.54950648 12.02138784t-45.200419 33.17903113q39.43015204 2.88513347 73.0900393 13.46395403zM875.61461699 436.81077381q-11.54053279 0-33.65988619 3.84684354-20.19593214 6.73197701-32.69817501 24.04277676t-12.50224394 38.46844089q0 28.85133147 19.23422098 48.08555244t48.08555242 19.23421991q8.65539933 0 15.38737636-6.73197704t6.73197701-15.38737634q0-10.57882165 6.251122-16.34908751t16.34908751-5.77026584 16.3490875 5.77026584 6.25112199 16.34908751q0 29.81304263-20.19593214 47.12384129-17.31079867 20.19593214-47.12384021 20.19593106-47.12384131 0-79.34116129-32.69817502t-32.21731997-79.8220163q0-40.3918632 28.85133146-73.0900382-43.27699666-16.34908751-85.59228216-16.34908752-68.28148353 0-129.83098999 38.46844089-25.00448685-15.38737636-59.62608417-15.38737636-29.81304263 0-56.74095177 13.46395404-22.11935337 62.51121766-22.11935338 120.2138795 0 47.12384131 13.46395403 94.24768258 28.85133147 18.27250982 65.39635112 18.27250873 17.31079867 0 25.966198-2.88513236 27.88962032 32.69817501 71.16661697 50.97068482t92.32425919 18.27250983q50.00897367 0 91.84340414-17.79165478T857.34210716 683.00879866l18.27250983 0q54.81752948 0 94.24768151-36.54501856t39.4301531-87.03484945-39.4301531-86.55399332-94.24768151-36.06416352z m-2.88513239-271.20251279q-2.88513347 18.27250982-13.46395512 35.58330849 67.31977234 17.31079867 122.61815685 55.77924062T1074.68880164 351.21849164q-10.57882165-141.37152279-94.24768151-252.93000297-39.43015204 60.58779534-107.71163553 67.31977235z m-780.90936225 226.00209382q0 127.90756769 60.10693921 237.06177048T315.89879383 804.66524544 545.74773118 882.08298334q-75.01346053-51.932396-118.77131221-133.67783357T383.21856618 570.4886073499999q0-124.06072412 71.64747202-222.63610421T642.88054617 209.84696885000005q30.77475269 25.00448685 75.97517166 25.00448684 13.46395404 0 20.19593214-1.92342234l3.84684464 0q3.84684464-0.96171116 9.13625437-2.40427733T761.17100335 228.11947866000003q1.92342231 0 4.80855577-1.92342232l12.50224288-6.731977q1.92342231 0 2.88513347-1.4425662t1.92342232-1.44256727q1.92342231-0.96171116 6.73197701-4.32769966t6.73197705-4.32769967l4.80855577-3.84684355q0-0.96171116 2.40427735-2.40427736t3.84684463-3.36598958 2.40427735-3.84684355l4.80855471-3.84684464q15.38737636-20.19593214 15.38737634-45.2004179l0-22.11935443 22.11935445 0q31.73646386 0 58.66437303-16.82994256T951.58978865 62.70518017999996q0-1.92342231 3.3659896-8.17454319T958.32176676 44.432670359999975q0-0.96171116 0.96171116-3.36598851t0.96171008-3.36598849q0-3.84684464 1.92342232-6.73197703 2.88513347-6.73197701 2.88513347-20.19593212 0-47.12384131-32.69817501-79.3411602t-79.82201633-32.21731998q-37.5067308 0-69.24319466 25.00448686 25.00448685 31.73646386 25.00448685 64.43463994 0 81.74543862-178.87825251 89.43912572 57.70266185-4.8085547 95.69024769-29.81304154T763.09442566-11.346569169999952q0-25.96619799-25.48534187-48.08555245t-65.87720616-32.69817501q-58.66437301-8.65539933-87.51570449-8.65539934-134.63954469 0-247.64059213 65.87720616t-178.87825252 178.8782525T91.82012235 391.61035484z"  horiz-adv-x="1098" />

    
    <glyph glyph-name="sport" unicode="&#58900;" d="M416.576 635.2c70.336 4.544 98.197333-7.381333 116.352-16.298667l17.152-8.448c27.52-14.037333 91.349333-48.533333 108.970667-54.464l13.056-3.776c25.024-6.826667 80.426667-14.912 147.690666 66.346667l4.821334 5.973333s29.077333 25.386667 64.448 0c29.184-21.013333 13.866667-49.322667 7.68-58.453333l-2.773334-4.010667c-8.064-12.778667-92.928-139.52-263.509333-95.509333l-9.130667-16.064a19544.789333 19544.789333 0 0 1-82.282666-149.546667l22.826666-14.848c32.426667-21.376 90.453333-60.885333 114.090667-84.736 33.685333-33.92 85.76-168.746667 85.76-168.746666l0.170667-4.352c0-10.282667-2.453333-36.16-25.685334-47.616-29.333333-14.336-54.058667 4.202667-58.922666 12.373333l-1.450667 2.773333c-10.368 20.821333-62.997333 137.322667-77.077333 150.058667-14.997333 13.674667-132.864 94.314667-160.341334 96.298667l-5.077333-5.546667c-20.266667-21.12-89.109333-84.309333-173.952-84.309333C164.544 152.32000000000005 106.666667 193.34400000000005 106.666667 219.51999999999998c0 26.176 31.829333 67.754667 67.626666 52.48l3.925334-1.770667c36.437333-16.896 100.778667-58.176 193.237333 56.234667l113.002667 209.024-3.52 1.706667c-16.426667 7.296-88.106667 30.656-166.442667-71.68-25.898667-27.242667-86.826667 7.36-78.4 42.346666 8.426667 34.986667 88.277333 119.296 180.48 127.338667z m194.154667 160.853333a104.106667 104.106667 0 0 0 104.32 0 104.341333 104.341333 0 0 0 52.074666-90.346666c0-37.376-19.84-71.68-52.074666-90.368a104.106667 104.106667 0 0 0-104.32 0 104.512 104.512 0 0 0-52.096 90.368c0 37.226667 19.861333 71.68 52.096 90.368z"  horiz-adv-x="1024" />

    
    <glyph glyph-name="stopuser" unicode="&#58929;" d="M735.701333 263.338667L856.32 384l60.330667-60.330667-120.661334-120.704 120.661334-120.661333-60.330667-60.330667-120.661333 120.661334-120.704-120.661334L554.666667 82.30399999999997l120.661333 120.661333L554.666667 323.66933300000005 614.997333 384l120.704-120.661333zM213.333333 469.333333v-341.333333h254.293334v-85.333333H128V725.333333h768v-170.666666l-85.333333-85.333334h85.333333-469.333333V554.666667h384V640H213.333333v-85.333333h128v-85.333334H213.333333z"  horiz-adv-x="1024" />

    
    <glyph glyph-name="add-fill" unicode="&#59051;" d="M825.82 696.975C741.931 780.456 630.434 826.434 511.806 826.434S281.64 780.456 197.744 696.976 67.6 502.386 67.6 384.234s46.225-229.24 130.143-312.75 195.394-129.458 314.033-129.458 230.155 45.928 314.013 129.457 130.143 194.63 130.143 312.781-46.156 229.201-130.114 312.711z m-91.916-344.472H543.537v-190.377c0-17.524-14.206-31.731-31.73-31.731s-31.731 14.207-31.731 31.73V352.504H289.698c-17.524 0-31.73 14.206-31.73 31.73s14.206 31.731 31.73 31.731h190.377V606.3330000000001c0 17.524 14.206 31.73 31.73 31.73 17.526 0 31.731-14.206 31.731-31.73v-190.377h190.367c17.524 0 31.73-14.207 31.73-31.73s-14.206-31.732-31.73-31.732v0.009z"  horiz-adv-x="1028" />

    
    <glyph glyph-name="rootuserinfo" unicode="&#59052;" d="M819.419429 102.03428599999995c17.408-41.252571 26.185143-84.845714 26.331428-129.901715a35.986286 35.986286 0 1 0-71.972571 0c0 69.851429-27.209143 135.533714-76.580572 184.978286a259.876571 259.876571 0 0 1-185.051428 76.580572c-69.851429 0-135.533714-27.209143-184.978286-76.580572a259.876571 259.876571 0 0 1-76.580571-185.051428 35.986286 35.986286 0 1 0-71.972572 0 331.702857 331.702857 0 0 0 97.718857 235.958857 332.8 332.8 0 0 0 147.382857 85.869714 274.505143 274.505143 0 0 0-106.349714 66.194286 273.261714 273.261714 0 0 0-80.676571 194.706285c0 73.508571 28.745143 142.701714 80.676571 194.706286A273.261714 273.261714 0 0 0 512.073143 830.171429c73.508571 0 142.701714-28.672 194.706286-80.676572a273.261714 273.261714 0 0 0 80.749714-194.706286 273.700571 273.700571 0 0 0-80.749714-194.706285 274.505143 274.505143 0 0 0-106.276572-66.194286 332.8 332.8 0 0 0 147.382857-85.869714c30.646857-30.646857 54.710857-66.340571 71.533715-106.057143z m-510.829715 452.754285A203.629714 203.629714 0 0 1 512 351.45142899999996a203.556571 203.556571 0 0 1 203.337143 203.337142A203.629714 203.629714 0 0 1 512 758.198857a203.629714 203.629714 0 0 1-203.337143-203.337143z"  horiz-adv-x="1024" />

    
    <glyph glyph-name="userinfo" unicode="&#59106;" d="M1011.779592-116.18919200000005a42.257038 42.257038 0 0 0-29.49118-11.810125 42.188772 42.188772 0 0 0-29.491181 11.810125l-132.095911 127.317249a254.429697 254.429697 0 0 0-152.917232-50.585567A252.313432 252.313432 0 0 0 491.519672 30.925377000000026a234.495844 234.495844 0 0 0-73.045284 169.983886c0 64.170624 25.941316 124.518317 73.045284 169.91562a252.245165 252.245165 0 0 0 176.19615 70.31462c66.559956 0 129.160447-24.917317 176.264415-70.31462a234.495844 234.495844 0 0 0 72.977018-169.983886c0-46.762635-13.721591-91.477272-39.79944-130.32098l134.621777-129.843113a39.253307 39.253307 0 0 0 0-56.866096z m-344.06377 157.149762c44.305037 0 85.947676 16.657056 117.213788 46.830902a155.989229 155.989229 0 0 1 0 226.099049 167.867621 167.867621 0 0 1-117.213788 46.830903c-44.305037 0-85.879409-16.588789-117.213789-46.830903a155.989229 155.989229 0 0 1 0-226.099049 167.867621 167.867621 0 0 1 117.213789-46.830902z m106.632462 706.354729H116.326322v-730.111513h254.907564v-80.486346H109.90926c-42.461838 0-77.004749 33.314111-77.004749 74.274083V753.459295C32.904511 794.419268 67.447422 827.733379 109.90926 827.733379h670.856086c42.461838 0 77.004749-33.314111 77.004749-74.274084v-279.62008h-83.421811V747.315299zM334.57471 133.46184200000005h-101.034599a41.028239 41.028239 0 0 0-41.642639 40.277306c0 22.118385 18.636788 40.140773 41.642639 40.140773h101.034599c23.005851 0 41.710906-18.022388 41.710906-40.209039 0-22.186652-18.705054-40.20904-41.642639-40.20904z m-142.677238 445.576236c0 22.186652 18.636788 40.277306 41.642639 40.277306h375.60295c22.937585 0 41.642639-18.090655 41.642638-40.277306 0-22.118385-18.705054-40.20904-41.642638-40.20904H233.471844a41.028239 41.028239 0 0 0-41.642639 40.277307z m0-209.30546c0 22.186652 18.636788 40.277306 41.642639 40.277306H381.610412c23.005851 0 41.642639-18.090655 41.642639-40.277306 0-22.186652-18.636788-40.277306-41.642639-40.277307H233.471844a41.028239 41.028239 0 0 0-41.642639 40.277307z"  horiz-adv-x="1096" />

    
    <glyph glyph-name="guanliyuanxinxi" unicode="&#59076;" d="M582.003992-128H136.686627c-28.103792 0-54.93014 12.007984-73.580839 32.702595-15.329341 16.606786-22.738523 38.834331-20.69461 61.317365l-0.255489 62.59481c0 18.39521 14.818363 33.213573 33.213572 33.213573s33.213573-14.818363 33.213573-33.213573v-66.427145c-0.510978-5.620758 0.510978-9.197605 4.087825-13.02994 6.131737-6.642715 14.562874-10.219561 23.760479-10.219561h445.061876c18.39521 0 33.213573-14.818363 33.213573-33.213573 0.510978-18.906188-14.307385-33.724551-32.702595-33.724551z m0 0M75.369261-55.441118c-18.39521 0-33.213573 14.818363-33.213572 33.213573v62.59481c0 190.850299 113.692615 363.560878 289.469061 438.419162 16.862275 7.153693 36.53493-0.766467 43.688623-17.628742 7.153693-16.862275-0.766467-36.53493-17.628742-43.944112-150.994012-64.383234-249.101796-212.822355-248.846308-377.101797V-22.227545c-0.255489-18.39521-15.073852-33.213573-33.469062-33.213573z m0 0M502.291417 381.44511c-142.051896 0-257.021956 115.225549-257.277445 257.277445C245.269461 780.774451 360.239521 895.744511 502.291417 896c142.051896-0.255489 257.277445-115.225549 257.277445-257.277445S644.343313 381.44511 502.291417 381.44511z m0 447.872255c-105.261477-0.255489-190.59481-85.333333-190.59481-190.59481 0-105.261477 85.333333-190.59481 190.59481-190.59481 105.261477 0 190.59481 85.333333 190.594811 190.59481 0 105.261477-85.333333 190.59481-190.594811 190.59481zM776.175649-118.546906c-57.740519 0-111.904192 22.483034-152.526946 63.105788-40.622754 40.878244-63.105788 95.041916-63.105789 152.782435 0 57.740519 22.483034 111.904192 63.105789 152.526946 40.622754 40.622754 94.786427 63.105788 152.526946 63.105789s111.904192-22.483034 152.526946-63.105789c40.622754-40.622754 63.105788-94.786427 63.105788-152.526946s-22.483034-111.904192-63.105788-152.526946c-40.622754-40.878244-94.786427-63.361277-152.526946-63.361277z m0 411.848303c-108.071856 0-195.96008-87.888224-195.96008-195.96008 0-108.071856 87.888224-195.96008 195.96008-195.960079 108.071856 0 195.96008 87.888224 195.96008 195.960079 0 108.071856-87.888224 195.96008-195.96008 195.96008z m0 0M775.153693-30.403194c-8.686627 0-15.840319 7.153693-15.84032 15.84032v140.518962c0 8.686627 7.153693 15.840319 15.84032 15.840319 8.686627 0 15.840319-7.153693 15.840319-15.840319v-140.518962c0-8.686627-7.153693-15.840319-15.840319-15.84032z m0 0M753.948104 201.06986c0-7.664671 4.087824-15.073852 10.986028-18.906187 6.642715-3.832335 15.073852-3.832335 21.716567 0 6.642715 3.832335 10.986028 10.986028 10.986028 18.906187 0 7.664671-4.087824 15.073852-10.986028 18.906188-6.642715 3.832335-15.073852 3.832335-21.716567 0-6.898204-3.832335-10.986028-10.986028-10.986028-18.906188z m0 0"  horiz-adv-x="1024" />

    
    <glyph glyph-name="look" unicode="&#58904;" d="M179.9168 426.8544a400.5376 400.5376 0 0 1-10.5984-20.224 51.2 51.2 0 0 1 0-45.2096c4.1984-8.5504 7.8336-15.4624 10.8544-20.736C255.7952 207.87199999999996 379.0336 128 512 128c130.7136 0 252.0576 77.1072 328.0896 206.2336 3.9424 6.656 8.704 15.6672 14.336 26.9824a51.2 51.2 0 0 1 0 45.4144 451.072 451.072 0 0 1-15.9232 29.9008C762.3168 564.0192 641.7408 640 512 640 378.88 640 255.488 559.9744000000001 179.9168 426.8544z m-44.544 25.2928C217.2928 596.48 355.4304 691.2 512 691.2c152.6784 0 287.8464-90.112 370.432-228.4544 5.12-8.4992 11.0592-19.6608 17.8688-33.3824a102.4 102.4 0 0 0 0-90.8288c-6.0928-12.3392-11.4688-22.4256-16.0768-30.3104C801.792 168.2432 665.8048 76.79999999999995 512 76.79999999999995c-156.3648 0-294.4 94.5152-376.32 238.592a451.5328 451.5328 0 0 0-12.288 23.3984 102.4 102.4 0 0 0 0 90.4704c4.5056 9.1136 8.4992 16.7424 11.9808 22.8864zM512 281.6a102.4 102.4 0 1 1 0 204.8 102.4 102.4 0 0 1 0-204.8z m0-51.2a153.6 153.6 0 1 0 0 307.2 153.6 153.6 0 0 0 0-307.2z"  horiz-adv-x="1024" />

    
    <glyph glyph-name="yonghu" unicode="&#59113;" d="M557.602133 353.6896a274.909867 274.909867 0 0 0-87.722666-0.6144c-43.690667-11.8784-110.865067-36.727467-197.0176-74.410667a34.133333 34.133333 0 0 1-17.749334-18.2272l-99.259733-238.7968a34.133333 34.133333 0 0 1 31.5392-47.240533h649.216a34.133333 34.133333 0 0 1 31.470933 47.240533L768.6144 261.12a34.133333 34.133333 0 0 1-17.544533 18.090667c-84.7872 38.024533-150.801067 62.805333-193.467734 74.410666z m124.1088 55.296c33.450667-6.826667 70.656-18.158933 111.274667-36.386133a136.533333 136.533333 0 0 0 70.2464-72.226134l99.396267-239.479466A136.533333 136.533333 0 0 0 836.539733-128H187.392a136.533333 136.533333 0 0 0-126.088533 188.893867l99.191466 238.865066A136.533333 136.533333 0 0 0 231.765333 372.394667a567.159467 567.159467 0 0 0 110.933334 36.181333 273.066667 273.066667 0 1 0 339.012266 0.341333zM512 452.266667a170.666667 170.666667 0 1 1 0 341.333333 170.666667 170.666667 0 0 1 0-341.333333z"  horiz-adv-x="1024" />

    
    <glyph glyph-name="guanliyuanxinxi1" unicode="&#58917;" d="M325.075383 432.859429a256 256 0 1 0 300.909714 0 474.185143 474.185143 0 0 0 135.826286-71.533715l-65.682286-43.154285A402.285714 402.285714 0 0 1 74.926811-54.857143H1.41824a475.648 475.648 0 0 0 323.584 487.716572zM841.244526 310.857143L1024.101669 201.069714v-219.282285L841.244526-128 658.387383-18.212571V201.069714L841.244526 310.857143z m109.714285-292.498286v146.139429l-109.714285 63.634285-109.714286-63.634285v-146.139429l109.714286-65.609143L950.958811 18.285714zM475.53024 457.142857a182.857143 182.857143 0 1 1 0 365.714286 182.857143 182.857143 0 0 1 0-365.714286z"  horiz-adv-x="1024" />

    
    <glyph glyph-name="deleteinfo" unicode="&#58882;" d="M512 275.456l253.3376-253.3376a76.6976 76.6976 0 1 1 108.544 108.544L620.6464 384l253.2352 253.3376a76.6976 76.6976 0 1 1-108.544 108.544L512 492.6464 258.6624 745.8815999999999a76.6976 76.6976 0 1 1-108.544-108.544L403.3536 384 150.1184 130.66240000000005a76.6976 76.6976 0 1 1 108.544-108.544L512 275.35360000000003z"  horiz-adv-x="1024" />

    
    <glyph glyph-name="addrootinfo" unicode="&#58884;" d="M69.588 383.72299999999996c0 118.89000001 46.078 230.659 129.73 314.73S394.334 828.88 512.778 828.88s229.744-46.327 313.427-130.398 129.73-195.82 129.73-314.73-46.078-230.659-129.73-314.72S631.19-61.39700000000005 512.817-61.39700000000005 283.04-15.077999999999975 199.35800001 69.02999999999997s-129.77 195.8-129.77000001 314.692z m822.784 0c0 101.972-39.49400001 197.809-111.222 269.865s-166.997 111.7-268.37300001 111.7-196.695-39.653-268.33499999-111.67S133.22 485.754 133.22 383.75199999999995s39.484-197.809 111.222-269.865 166.998-111.69999999 268.374-111.67c101.375 0.03 196.665 39.654 268.303 111.67S892.372 281.78 892.372 383.72299999999996z m-347.8-222.585L544.572 351.927 735.36 351.927c17.561 0.76 31.18 15.613 30.419 33.173-0.714 16.495-13.924 29.704-30.419 30.419l-190.787 0L544.573 606.297c-0.761 17.56-15.614 31.179-33.174 30.419-16.494-0.715-29.703-13.924-30.418-30.41999999L480.981 415.52l-190.788 0c-17.56-0.761-31.179-15.614-30.419-33.174 0.715-16.494 13.925-29.703 30.42-30.418L480.98 351.928l0-190.788c-0.762-17.56 12.857-32.41299999 30.418-33.173 17.561-0.762 32.414 12.858 33.174 30.419a31.683 31.683 0 0 1 0 2.753z"  horiz-adv-x="1028" />

    
    <glyph glyph-name="fenlei" unicode="&#58897;" d="M906.19904 779.61216H115.92704c-34.31424 0-62.14656-27.83744-62.14656-62.17216v-0.29696c0-34.33984 27.83232-62.17216 62.14656-62.17216h790.272c34.30912 0 62.15168 27.83744 62.15168 62.17216v0.29696c0 34.33472-27.84256 62.17216-62.15168 62.17216z m-0.31744-331.05408H116.2496c-34.5088 0-62.46912-27.98592-62.46912-62.47424v-0.49152c0-34.48832 27.9552-62.46912 62.46912-62.46912H905.8816c34.5088 0 62.46912 27.9808 62.46912 62.46912v0.49152c0 34.48832-27.96032 62.47424-62.46912 62.47424z m0.31744-331.84768H115.92704c-34.31424 0-62.14656-27.84256-62.14656-62.17728v-0.29696c0-34.33984 27.83232-62.17728 62.14656-62.17728h790.272c34.30912 0 62.15168 27.83744 62.15168 62.17728v0.29696c0 34.33472-27.84256 62.17728-62.15168 62.17728z"  horiz-adv-x="1024" />

    
    <glyph glyph-name="user_center" unicode="&#58949;" d="M608.188 338.09799999999996L434.715 338.09799999999996c-161.213 0-292.327-131.238-292.327-292.602l0-17.361c0-84.354 129.017-84.354 292.327-84.354l173.474 0c156.884 0 292.356 0 292.356 84.354l0 17.361C900.545 206.82899999999995 769.397 338.09799999999996 608.188 338.09799999999996L608.188 338.09799999999996zM512.785 360.43100000000004c127.658 0 231.524 104.015 231.524 231.894 0 127.873-103.866 231.895-231.524 231.895-127.654 0-231.53-104.044-231.53-231.9C281.255 464.474 385.131 360.43100000000004 512.785 360.43100000000004L512.785 360.43100000000004zM512.785 360.43100000000004"  horiz-adv-x="1024" />

    
    <glyph glyph-name="upload" unicode="&#58991;" d="M1024 250.75199999999995v-330.752a48 48 0 0 0-48-48H48a48 48 0 0 0-48 48v330.752a48 48 0 0 0 96 0V-32h832v282.752a48 48 0 0 0 96 0zM246.912 514.24L464.768 732.16v-593.472a48 48 0 0 1 96 0V732.096l217.856-217.92a48 48 0 1 1 67.904 67.904L546.752 881.92a47.936 47.936 0 0 1-67.904 0L179.072 582.144a48 48 0 0 1 67.84-67.904z"  horiz-adv-x="1024" />

    
    <glyph glyph-name="guide" unicode="&#58880;" d="M64.57 742.412h894.86v-92.076H64.57v92.076z m0 0M64.57 430.036h894.86v-92.077H64.57v92.077z m0 0M64.57 117.66700000000003h894.86v-92.078H64.57v92.078z m0 0"  horiz-adv-x="1024" />

    
    <glyph glyph-name="comment" unicode="&#58927;" d="M511.9 68.5L610.7 170l17.4 17.9h209v472H187.3v-472.1h208.4l17.4-17.9 98.8-101.4m0-77.9c-4.1 0-8.3 1.6-11.5 4.9L370.7 128.70000000000005H166.6c-21.2 0-38.4 17.6-38.4 39.3V679.6c0 21.7 17.2 39.3 38.4 39.3h691.2c21.2 0 38.4-17.6 38.4-39.3V168c0-21.7-17.2-39.3-38.4-39.3H653L523.3-4.5c-3.2-3.2-7.3-4.9-11.4-4.9zM334.9 463c27.2 0 49.3-22 49.3-49.2 0-27.2-22-49.2-49.3-49.2-27.2 0-49.2 22-49.2 49.2 0 27.1 22.1 49.2 49.2 49.2zM512.2 463c27.2 0 49.2-22 49.2-49.2 0-27.2-22-49.2-49.2-49.2-27.2 0-49.2 22-49.2 49.2 0 27.1 22 49.2 49.2 49.2zM689.4 463c27.2 0 49.2-22 49.2-49.2 0-27.2-22-49.2-49.2-49.2-27.2 0-49.3 22-49.3 49.2 0.1 27.1 22.1 49.2 49.3 49.2z"  horiz-adv-x="1024" />

    
    <glyph glyph-name="more" unicode="&#58891;" d="M174.545455 477.090909a81.454545 81.454545 0 1 0 0-162.909091 81.454545 81.454545 0 0 0 0 162.909091z m349.090909 0a81.454545 81.454545 0 1 0 0-162.909091 81.454545 81.454545 0 0 0 0 162.909091z m349.090909 0a81.454545 81.454545 0 1 0 0-162.909091 81.454545 81.454545 0 0 0 0 162.909091z"  horiz-adv-x="1024" />

    
    <glyph glyph-name="step" unicode="&#58933;" d="M222.5 315.6h-74.1c-46.4 0-84 37.6-84 84V686c0 46.4 37.6 84 84 84h74.1v-454.4zM896.6 315.6H691c-23.7 0-38.1-26.3-25.1-46.1 34.7-52.9 65.4-113.9 71.7-181.1 10.2-109.4-136.2-148.2-190.3-33.2-9.9 21.1-23.4 57.9-37 97.4-32 93.2-117.3 156.9-214.8 162.5V770H736c55.7 0 105.2-35.4 123.1-88.1l96.8-283.4c13.9-40.6-16.3-82.9-59.3-82.9z"  horiz-adv-x="1024" />

    
    <glyph glyph-name="left-arrow" unicode="&#58886;" d="M324.211517 384.194369L787.889594 822.917417c16.19422 16.630365 16.19422 43.974704 0 60.605068-16.19422 16.630365-42.495607 16.630365-58.613976 0L235.750113 416.639698c-8.647031-8.969398-12.344775-20.934917-11.719003-32.445329-0.644735-11.90863 3.071972-23.874149 11.719003-32.824585l493.506542-466.882788c16.118369-16.649327 42.438718-16.649327 58.613976 0 16.19422 17.085471 16.19422 43.974704 0 60.605068L324.211517 384.194369"  horiz-adv-x="1024" />

    
    <glyph glyph-name="home" unicode="&#58965;" d="M900.745478 465.095233l-330.418307 308.008394c-16.679524 19.033077-40.82902 29.982212-66.411112 29.982212-25.172779 0-49.322274-10.846807-65.2855-28.8566L120.491656 465.197562c-15.860897-16.270211-20.465674-39.805736-11.665434-60.783052 8.80024-20.977316 29.163585-34.075347 51.880484-34.075347l28.651944 0 0-314.148096c0-48.708304 38.987109-88.309383 87.695413-88.309383l136.608374 0c17.702808 0 33.461377 14.325972 33.461377 32.02878L447.123813 208.96732299999996c0 8.902568 5.832717 16.781853 14.735285 16.781853l96.393325 0c8.902568 0 15.656241-7.981613 15.656241-16.781853l0-208.954532c0-17.805136 14.837614-32.02878 32.540422-32.02878l136.608374 0c48.708304 0 88.616369 39.498751 88.616369 88.309383l0 314.148096 28.549615 0c22.61457 0 42.977915 13.098031 51.778155 33.973019C921.006495 425.187169 916.504047 448.825022 900.745478 465.095233L900.745478 465.095233 900.745478 465.095233M900.745478 465.095233L900.745478 465.095233z"  horiz-adv-x="1024" />

    
    <glyph glyph-name="up" unicode="&#59043;" d="M125.231701 32.87294399999996l140.471288 0 0 421.36577-140.471288 0L125.231701 32.87294399999996zM897.74397 419.103496c0 38.601156-31.578206 70.211085-70.206992 70.211085l-221.224474 0 35.07689 161.53093 0 10.547217c0 14.068414-6.996344 28.084639-13.991666 38.60525l-38.676881 35.131125-231.718479-231.746108c-14.040784-10.547217-21.089317-28.080545-21.089317-49.14428l0-351.155708c0-38.601156 31.632441-70.210062 70.260204-70.210062l316.024583 0c28.080545 0 52.668547 17.541515 63.215764 42.153052l105.337093 249.282506c3.497661 6.995321 3.497661 17.539468 3.497661 24.583908l0 70.211085L897.74397 419.103496C897.74397 415.579229 897.74397 419.103496 897.74397 419.103496"  horiz-adv-x="1024" />

    
    <glyph glyph-name="fire" unicode="&#59040;" d="M361.409 34.200000000000045c36.509-12.17 48.678 21.297 33.466 33.466-48.678 33.466-73.017 94.313-54.762 149.076 18.254 60.847 66.932 85.186 66.932 176.457 0 0 60.847-45.636 48.678-115.611 60.847 69.974 33.466 161.245 21.297 203.839 155.161-82.144 289.025-261.644 133.864-413.762-18.254-15.211 0-42.593 27.382-33.466 422.889 240.347 103.441 599.347 48.678 641.94 18.254-42.593 21.297-109.525-15.211-142.992-63.891 240.347-219.051 289.025-219.051 289.025 18.254-124.737-69.974-258.602-152.119-362.042-3.042 51.72-6.084 85.186-30.424 130.822-6.084-88.229-76.059-161.245-94.312-252.516-24.339-121.694 18.254-209.923 185.585-304.237v0z"  horiz-adv-x="1024" />

    
    <glyph glyph-name="subscribe" unicode="&#58887;" d="M980.779-72.702l0.212 21.22c0 503.961-408.557 912.5-912.539 912.5l-21.221-0.212v-148.334c433.662 0 785.207-351.537 785.207-785.174h148.34zM641.018-72.702l0.423 21.22c0 316.444-256.531 572.965-572.989 572.965l-21.221-0.423v-148.123c246.132 0 445.659-199.517 445.659-445.641h148.129zM47.231 54.625999999999976c0-70.324 57.006-127.328 127.33-127.328 70.327 0 127.33 57.004 127.33 127.328 0 70.315-57.003 127.322-127.33 127.322-70.324 0.001-127.33-57.007-127.33-127.322z"  horiz-adv-x="1000" />

    
    <glyph glyph-name="right-arrow" unicode="&#58883;" d="M801.548285 385.728968L301.254151-114.36057400000004c-18.242732-18.242732-47.73799-18.106338-65.844327 0.306887a47.226511 47.226511 0 0 0 0.272788 66.389904l433.358652 433.154061L235.784908 815.643665A47.192413 47.192413 0 0 0 235.307528 882.0335689999999 46.30585 46.30585 0 0 0 301.151856 882.545048l500.396429-496.81608z"  horiz-adv-x="1024" />

    
    <glyph glyph-name="history" unicode="&#58907;" d="M537.6 870.4c-179.2 0-339.2-96-419.2-246.4L0 742.4v-332.8h332.8l-144 144C256 681.6 384 768 537.6 768c211.2 0 384-172.8 384-384s-172.8-384-384-384c-169.6 0-307.2 108.8-364.8 256H67.2c57.6-204.8 246.4-358.4 470.4-358.4C809.6-102.39999999999998 1024 118.39999999999998 1024 384S803.2 870.4 537.6 870.4z m-76.8-256V352l240-144 41.6 67.2-204.8 121.6V611.2h-76.8z"  horiz-adv-x="1024" />

    
    <glyph glyph-name="directory" unicode="&#58890;" d="M170.8 128.39999999999998c0-47.2 38.2-85.4 85.4-85.4h512.2c47.1 0 85.4 38.2 85.4 85.4V469.9h-683v-341.5z m597.6 512.2H469.6c0 47.2-38.2 85.4-85.4 85.4h-128c-47.1 0-85.4-38.2-85.4-85.4v-128.1h683v42.7c-0.1 47.2-38.3 85.4-85.4 85.4z"  horiz-adv-x="1024" />

    
    <glyph glyph-name="video" unicode="&#58959;" d="M724.032 331.39200000000005v105.6c0 10.56 3.52 22.72 8.384 27.776l115.584 118.976c37.824 38.912 81.344 49.856 81.344 8.128v-415.424c0-41.664-43.52-30.784-81.344 8.128l-115.584 118.976c-4.864 4.992-8.384 17.216-8.384 27.84zM669.376 214.20799999999997a64 64 0 0 0-64-64h-446.72a64 64 0 0 0-64 64V554.24a64 64 0 0 0 64 64h446.72a64 64 0 0 0 64-64v-340.032z"  horiz-adv-x="1024" />

    
    <glyph glyph-name="up-arrow" unicode="&#58925;" d="M910.222222 99.55555600000002c-17.066667 0-34.133333 5.688889-45.511111 17.066666L551.822222 486.4c-11.377778 5.688889-17.066667 11.377778-34.133333 11.377778-5.688889 0-22.755556-5.688889-28.444445-11.377778l-329.955555-364.088889c-22.755556-22.755556-56.888889-22.755556-79.644445-5.688889-22.755556 22.755556-22.755556 56.888889-5.688888 79.644445l329.955555 364.088889c28.444444 34.133333 73.955556 51.2 119.466667 51.2s85.333333-22.755556 119.466666-56.888889l312.888889-364.088889c22.755556-22.755556 17.066667-56.888889-5.688889-79.644445-11.377778-5.688889-28.444444-11.377778-39.822222-11.377777z"  horiz-adv-x="1024" />

    
    <glyph glyph-name="down-arrow" unicode="&#58926;" d="M517.688889 99.55555600000002c-45.511111 0-85.333333 17.066667-119.466667 51.2L73.955556 514.8444440000001c-22.755556 22.755556-17.066667 56.888889 5.688888 79.644445 22.755556 22.755556 56.888889 17.066667 79.644445-5.688889l329.955555-364.088889c5.688889-5.688889 17.066667-11.377778 28.444445-11.377778s22.755556 5.688889 34.133333 17.066667l312.888889 364.088889c22.755556 22.755556 56.888889 28.444444 79.644445 5.688889 22.755556-22.755556 28.444444-56.888889 5.688888-79.644445L637.155556 156.44444399999998c-28.444444-39.822222-68.266667-56.888889-119.466667-56.888888 5.688889 0 0 0 0 0z"  horiz-adv-x="1024" />

    
    <glyph glyph-name="clock" unicode="&#58998;" d="M880.64 559.217778c13.653333 25.031111 22.755556 54.613333 22.755556 86.471111 0 95.573333-77.368889 172.942222-170.666667 172.942222-54.613333 0-104.675556-27.306667-134.257778-65.991111 116.053333-27.306667 216.177778-95.573333 282.168889-193.422222zM411.875556 750.364444c-31.857778 40.96-79.644444 65.991111-136.533334 65.991112C182.044444 816.355556 104.675556 741.2622220000001 104.675556 645.688889c0-31.857778 9.102222-59.164444 22.755555-86.471111 65.991111 97.848889 166.115556 166.115556 284.444445 191.146666z m93.297777-52.337777C295.822222 698.026667 125.155556 527.36 125.155556 318.00888899999995S295.822222-62.008888999999954 505.173333-62.008888999999954s380.017778 170.666667 380.017778 380.017778c-2.275556 209.351111-170.666667 380.017778-380.017778 380.017778z m179.768889-425.528889h-216.177778V556.942222H523.377778v-225.28h159.288889v-59.164444z m0 0"  horiz-adv-x="1024" />

    
    <glyph glyph-name="collection" unicode="&#60198;" d="M512 119.46666700000003l-238.933333-85.333334 8.533333 251.733334L128 490.666667l243.2 72.533333L512 768l140.8-209.066667L896 490.666667l-153.6-200.533334 8.533333-251.733333-238.933333 81.066667z m0 93.866666l149.333333-51.2-4.266666 157.866667 98.133333 123.733333-153.6 42.666667L512 618.666667 422.4 486.4l-153.6-42.666667 98.133333-123.733333-4.266666-157.866667L512 213.33333300000004z"  horiz-adv-x="1024" />

    
    <glyph glyph-name="movie" unicode="&#58946;" d="M262.297769 354.28830800000003a46 46 0 1 1 65.052688 65.054959 46 46 0 1 1-65.052688-65.054959ZM478.798651 570.843593a45.8 45.8 0 1 1 64.769851 64.772112 45.8 45.8 0 1 1-64.769851-64.772112ZM474.064294 142.03170599999999a46.3 46.3 0 1 1 65.476945 65.479231 46.3 46.3 0 1 1-65.476945-65.479231ZM690.49476 358.515573a46.2 46.2 0 1 1 65.335526 65.337806 46.2 46.2 0 1 1-65.335526-65.337806ZM952 1.5H773.9c123.6 84.6 204.7 226.8 204.7 388 0 259.5-210.4 469.9-469.9 469.9S38.9 649 38.9 389.5c0-252.4 199-458.3 448.7-469.4 2-0.3 4.1-0.5 6.3-0.5H952c22.6 0 41 18.3 41 41-0.1 22.6-18.4 40.9-41 40.9zM420.5 693.8c50.1 50.1 131.2 50.1 181.3 0s50.1-131.2 0-181.3-131.2-50.1-181.3 0c-50 50.1-50 131.3 0 181.3zM204.2 296.20000000000005c-50.1 50.1-50.1 131.2 0 181.3 50.1 50.1 131.2 50.1 181.3 0 50.1-50.1 50.1-131.2 0-181.3-50.1-50.1-131.3-50.1-181.3 0z m393.3-212c-50.1-50.1-131.2-50.1-181.3 0-50.1 50.1-50.1 131.2 0 181.3 50.1 50.1 131.2 50.1 181.3 0 50-50.1 50-131.3 0-181.3z m35.1 216.3c-50.1 50.1-50.1 131.2 0 181.3 50.1 50.1 131.2 50.1 181.3 0 50.1-50.1 50.1-131.2 0-181.3-50.1-50-131.3-50-181.3 0z"  horiz-adv-x="1024" />

    
    <glyph glyph-name="search" unicode="&#58914;" d="M883.9 85.20000000000005L710.7 267.9c38.2 52.3 59.7 114.8 61.5 180.9 2.3 86-29 167.8-88.2 230.2-59.2 62.5-139.2 98.1-225.2 100.4-86.1 2.3-167.8-29-230.2-88.2C166.1 632 130.5 552 128.2 466c-2.3-86 29-167.8 88.2-230.2 59.2-62.5 139.2-98.1 225.2-100.4 3-0.1 5.9-0.1 8.9-0.1 62.9 0 123.2 18 175 51.8l173.2-182.8c11.6-12.2 27.1-18.3 42.7-18.3 14.5 0 29 5.3 40.4 16.1 23.4 22.3 24.4 59.5 2.1 83.1zM444.1 231.60000000000002c-60.3 1.6-116.4 26.6-158 70.5-41.5 43.8-63.5 101.2-61.9 161.5 1.6 60.3 26.6 116.4 70.5 158 42.3 40.1 97.2 62 155.3 62 2.1 0 4.2 0 6.2-0.1 60.3-1.6 116.4-26.6 158-70.5 41.5-43.8 63.5-101.2 61.9-161.5-1.6-60.3-26.6-116.4-70.5-158-43.8-41.6-101.2-63.5-161.5-61.9z"  horiz-adv-x="1024" />

    
    <glyph glyph-name="bell" unicode="&#58881;" d="M663.6679 125.32096000000001h-107.517368a7.384004 7.384004 0 0 1-7.400268-7.402301c0-31.691041 27.439953-57.467967 61.153869-57.467967 33.730181 0 61.168101 25.776925 61.168101 57.467967a7.386038 7.386038 0 0 1-7.404334 7.402301zM789.523296 291.44683c6.206874 17.756579 9.343856 36.021418 9.343855 54.455v149.414274c0 76.198372-51.120813 142.695074-127.792883 167.126126v15.08313c0 31.717471-27.43792 57.522859-61.168102 57.522859-33.713917 0-61.15387-25.805388-61.153869-57.522859v-15.054667c-76.674104-24.46968-127.768487-90.982646-127.768488-167.152556v-149.414274c0-18.516936 3.124784-36.781776 9.31336-54.455-50.58409-2.758836-88.984167-28.537795-88.984166-60.930235v-53.780031a7.400269 7.400269 0 0 1 7.400269-7.400268h522.37969a7.412467 7.412467 0 0 1 7.418566 7.400268v53.780031c0 32.390407-38.416341 58.169366-88.988232 60.928202z"  horiz-adv-x="1219" />

    


  </font>
</defs>
</svg>
